/* XPM */
static char *_640599342414a67dd61a05e3062c782fBUDzvoOlRiO96Ta[] = {
/* columns rows colors chars-per-pixel */
"40 40 52 1 ",
"  c #141F66",
". c #161F69",
"X c #1C1F6C",
"o c #201E6F",
"O c #221F71",
"+ c #0E2364",
"@ c #0F2867",
"# c #0E2769",
"$ c #0E2868",
"% c #122266",
"& c #14246A",
"* c #16256C",
"= c #14276C",
"- c #18236D",
"; c #1A226D",
": c #1A226E",
"> c #18246D",
", c #18266E",
"< c #19266F",
"1 c #102868",
"2 c #13286A",
"3 c #13286B",
"4 c #14286A",
"5 c #13296C",
"6 c #152A6C",
"7 c #162C6E",
"8 c #182B6F",
"9 c #182D6E",
"0 c #1E2471",
"q c #172B70",
"w c #172C70",
"e c #182B70",
"r c #1B2972",
"t c #182C70",
"y c #1A2C74",
"u c #173072",
"i c #1B3072",
"p c #1C3076",
"a c #1E3177",
"s c #232374",
"d c #282577",
"f c #222976",
"g c #262478",
"h c #29247A",
"j c #213879",
"k c #2A3A7E",
"l c #393785",
"z c #2E4683",
"x c #314985",
"c c #364987",
"v c #615E9F",
"b c #8D9BBC",
/* pixels */
"67wttttt8q666666667755255566qqw65225$255",
"666tttte7qq66666666552226556qwwq522$$#$$",
"466iwwwww6w7666696522222565qypye5$$$$$$$",
"22666wqqwqqw7666452222%22666ypyc5$@$$$$$",
"22=676wwwwww666666222%##%=65wykbt2$@$$#$",
"%22666wwwwww76756522%%##%266qqeq2$$@#$#2",
"%%2467wwttwwww766222##++22=6qe5222$##$#2",
"%%22566wjzttww75522%##++2==2562222###@#2",
"%%%2256wzxuww65222%#+++#+%2222222##%#222",
"%%%22566twww7522%#++++++++%2222222222222",
"%%%22256w77652%%+++++%%%%%2=22552222##2=",
"%%%22225555222#+++++%%%%%====6562222##22",
"%%%2=2655522%#++++++%%===-,,=6662%222222",
"222==2662222##+++++%%= ====,,,6=222-=,,=",
"2=222465222%#++++ %%  =---===,,,========",
"%229==2666=2#+++%&%= ==----0f0s0---=2222",
"%%2=222260,=%=%+%%+ %==---,00ssssss-=%%%",
"%%%2226=====%%%%%%+++%%==,00fss000s0-%++",
"%%%=,8====--==%%++++++%=,,00s000-----=+%",
"+%%======----=   ++++%%=0000e00000---%++",
"%%%2=====---==% %++++%%=,sf00,s000--=&++",
"%%22=,,====--=     %%%==,0fss0-0000-==%+",
"%222===%%%==--=&%%%  &==,ee0000000--=%%+",
"=2=2222%%%=--X-.= ===--,ee00----0s00- ++",
"===2==%%=-=-XOX.-====-,0e0s0,---ss00-  +",
"=====,=%=---XOXXXX---000fss,,--0ss0--  +",
"e=======  -oOOoXXX-ssssss0s0---0sss0   +",
"ee8===%=  .oOOOOXOsshhfss0----0sshO0= % ",
"eeee==  &  XoOOsooOshhhdss----ssshOO-=  ",
"eee6==  %% .XOOOoOssdhhfss-Xssssvlso-   ",
"e868==& &  .XXOOOsssdhhhdsssOOssss0-.X.-",
"6866===   . .XOssssdfhhhssssOsss0000-= %",
"==,4==&--..& .-sssssfhhhgssssO000-X--==%",
"===,=&&&-X-& .sssssdfhhhssssssss0-===%=%",
",======,------sssssdhhhhhhhgsss0-==%%%%%",
"====&==,,,-----sdddsfssghhhhgs0-=%%%%%%%",
"=&&&&&%=,,,,,--sdddddssshhhhss00--=%%%%%",
"=&&&%%%&,-,-,,,sfddssssgghhss00---=%%%%%",
"&&%%%%%%&-,-0,dhdhhdssssggss0------====%",
"=&   %%%&&-,0sdddhhsssssss000-==-0---0--"
};
